Coordinates
version=1
nRows=17
nColumns=38
inDegrees=no

Units are S.I. units (second, meters, Newtons, ...)
If the header above contains a line with 'inDegrees', this indicates whether rotational values are in degrees (yes) or radians (no).

endheader
time	pelvis_tilt	pelvis_list	pelvis_rotation	pelvis_tx	pelvis_ty	pelvis_tz	hip_flexion_r	hip_adduction_r	hip_rotation_r	knee_angle_r	ankle_angle_r	subtalar_angle_r	mtp_angle_r	hip_flexion_l	hip_adduction_l	hip_rotation_l	knee_angle_l	ankle_angle_l	subtalar_angle_l	mtp_angle_l	lumbar_extension	lumbar_bending	lumbar_rotation	arm_flex_r	arm_add_r	arm_rot_r	elbow_flex_r	pro_sup_r	wrist_flex_r	wrist_dev_r	arm_flex_l	arm_add_l	arm_rot_l	elbow_flex_l	pro_sup_l	wrist_flex_l	wrist_dev_l
0.81	-0.474185	1.49322	-0.934666	0.705808	1.31982	0.954482	0.3715	-0.101931	-0.133806	1.09112	-0.260506	0	0	-0.145341	-0.031037	-0.190132	0.245551	-0.231647	0	0	-0.158561	0.0827077	0.0375468	-0.239904	-0.275316	-0.0419767	0.876167	1.5708	0	0	0.245121	-0.276991	0.672234	0.689249	1.52279	0	0
0.82	-0.492293	1.4943	-0.915366	0.70644	1.31218	0.95387	0.380941	-0.0982016	-0.129466	1.05107	-0.251904	0	0	-0.15342	-0.0325723	-0.189816	0.243876	-0.227972	0	0	-0.1588	0.084273	0.0344878	-0.239128	-0.276129	-0.0445696	0.873785	1.5708	0	0	0.251755	-0.275494	0.658289	0.696703	1.5267	0	0
0.83	-0.523279	1.49677	-0.883713	0.706947	1.30458	0.953064	0.390026	-0.0930783	-0.122539	1.00643	-0.242957	0	0	-0.15906	-0.0340285	-0.189548	0.243548	-0.223498	0	0	-0.157396	0.0856382	0.031493	-0.237319	-0.2772	-0.0452489	0.870119	1.5708	0	0	0.257289	-0.273722	0.643024	0.704096	1.53183	0	0
0.84	-0.568193	1.50031	-0.838701	0.707324	1.29691	0.952052	0.398205	-0.0874364	-0.114439	0.956939	-0.233818	0	0	-0.162836	-0.0353608	-0.189518	0.244459	-0.217574	0	0	-0.154606	0.0867788	0.0277718	-0.233889	-0.278167	-0.0443608	0.86475	1.5708	0	0	0.260403	-0.271887	0.623682	0.712582	1.54065	0	0
0.85	-0.615857	1.50435	-0.791392	0.70763	1.28917	0.950869	0.404925	-0.0827954	-0.107052	0.903993	-0.225549	0	0	-0.166103	-0.035989	-0.189658	0.246137	-0.212119	0	0	-0.151482	0.0872736	0.0241514	-0.229922	-0.279423	-0.0417273	0.858972	1.5708	0	0	0.26255	-0.270463	0.60428	0.722087	1.54973	0	0
0.86	-0.660022	1.50893	-0.747722	0.707918	1.28132	0.949546	0.410273	-0.0801815	-0.101929	0.849046	-0.217823	0	0	-0.169538	-0.0355431	-0.189567	0.24768	-0.206551	0	0	-0.148169	0.0867734	0.0206211	-0.226048	-0.28096	-0.0373556	0.853263	1.5708	0	0	0.263796	-0.269121	0.585119	0.732352	1.55908	0	0
0.87	-0.703134	1.5141	-0.705437	0.708155	1.27334	0.948074	0.414926	-0.0795059	-0.0994549	0.793364	-0.210167	0	0	-0.173043	-0.0341444	-0.189439	0.249194	-0.2008	0	0	-0.144532	0.0853293	0.0175365	-0.222516	-0.28238	-0.0325925	0.847755	1.5708	0	0	0.26422	-0.267647	0.566407	0.742938	1.56913	0	0
0.88	-0.743934	1.51987	-0.665737	0.708329	1.26521	0.946471	0.419063	-0.0805795	-0.0996926	0.73795	-0.203027	0	0	-0.176941	-0.0317549	-0.189041	0.250292	-0.194961	0	0	-0.140452	0.0828875	0.0146787	-0.219133	-0.283403	-0.0279189	0.842205	1.5708	0	0	0.264255	-0.266802	0.550443	0.753599	1.5708	0	0
0.89	-0.783929	1.52606	-0.627024	0.70845	1.25691	0.944767	0.422345	-0.0827072	-0.101837	0.682343	-0.196595	0	0	-0.181346	-0.0286637	-0.1886	0.25107	-0.189339	0	0	-0.136084	0.0795964	0.0121359	-0.215735	-0.283668	-0.0243625	0.836587	1.5708	0	0	0.264517	-0.266906	0.538944	0.763928	1.5708	0	0
0.9	-0.822026	1.53233	-0.590381	0.708495	1.24845	0.943	0.424265	-0.0853115	-0.105266	0.626083	-0.190823	0	0	-0.186444	-0.0251716	-0.188548	0.251703	-0.184206	0	0	-0.131898	0.075693	0.0102629	-0.212787	-0.283647	-0.0208253	0.831261	1.5708	0	0	0.264741	-0.267147	0.529535	0.773659	1.5708	0	0
0.91	-0.861938	1.53845	-0.552057	0.708466	1.23985	0.941204	0.424519	-0.0880857	-0.109752	0.568856	-0.185972	0	0	-0.192163	-0.021684	-0.189128	0.252433	-0.179371	0	0	-0.127832	0.0716134	0.00900741	-0.210418	-0.283659	-0.0167519	0.826414	1.5708	0	0	0.26474	-0.267355	0.521678	0.782682	1.5708	0	0
0.92	-0.907716	1.54414	-0.507906	0.708363	1.23111	0.939407	0.423205	-0.0906396	-0.115024	0.511697	-0.181853	0	0	-0.198453	-0.0186134	-0.190088	0.253405	-0.174432	0	0	-0.124075	0.067675	0.0081837	-0.208422	-0.28382	-0.0119693	0.821982	1.5708	0	0	0.264431	-0.267149	0.514447	0.79081	1.5708	0	0
0.93	-0.95968	1.5493	-0.45739	0.70819	1.22227	0.937626	0.420819	-0.0932248	-0.121681	0.456808	-0.178213	0	0	-0.205125	-0.0160072	-0.191277	0.254572	-0.169783	0	0	-0.120833	0.0639627	0.00746077	-0.206487	-0.284042	-0.00644356	0.817802	1.5708	0	0	0.263727	-0.267179	0.508284	0.798545	1.5708	0	0
0.94	-1.02639	1.5533	-0.391961	0.707919	1.21338	0.935945	0.415575	-0.0933572	-0.12413	0.400116	-0.176754	0	0	-0.211862	-0.0146349	-0.19263	0.256773	-0.165311	0	0	-0.118565	0.0612566	0.00599471	-0.20333	-0.28391	-0.00091238	0.813337	1.5708	0	0	0.262008	-0.267089	0.501127	0.805968	1.5708	0	0
0.95	-1.13154	1.55633	-0.28757	0.70762	1.20442	0.934355	0.408114	-0.0910042	-0.121396	0.343263	-0.176251	0	0	-0.218115	-0.0144738	-0.193485	0.260062	-0.161498	0	0	-0.116481	0.0596951	0.00447379	-0.200208	-0.283139	0.00280509	0.809099	1.5708	0	0	0.260408	-0.265886	0.494668	0.811231	1.5708	0	0
0.96	-1.1425	1.55743	-0.276573	0.70731	1.19538	0.933021	0.397587	-0.0873376	-0.118597	0.291	-0.178058	0	0	-0.226059	-0.0161779	-0.194521	0.264321	-0.158148	0	0	-0.116768	0.0596838	0.0029057	-0.197354	-0.282594	0.00673418	0.805453	1.5708	0	0	0.259178	-0.264042	0.489214	0.814954	1.5708	0	0
0.97	-1.02585	1.55773	-0.392412	0.707038	1.18624	0.931812	0.389152	-0.0851073	-0.122306	0.257189	-0.178124	0	0	-0.235399	-0.0185721	-0.19615	0.269608	-0.155238	0	0	-0.119238	0.0598369	0.00110852	-0.194918	-0.282033	0.0105342	0.802717	1.5708	0	0	0.257925	-0.262928	0.485626	0.818999	1.5708	0	0
